<?xml version="1.0" encoding="utf-8"?>
<!-- Svg Vector Icons : http://www.onlinewebfonts.com/icon -->
<!DOCTYPE svg PUBLIC "-//W3C//DTD SVG 1.1//EN" "http://www.w3.org/Graphics/SVG/1.1/DTD/svg11.dtd">
<svg version="1.1" xmlns="http://www.w3.org/2000/svg" xmlns:xlink="http://www.w3.org/1999/xlink" x="0px" y="0px" viewBox="0 0 1000 1000" enable-background="new 0 0 1000 1000" xml:space="preserve">
<metadata> Svg Vector Icons : http://www.onlinewebfonts.com/icon </metadata>
<g><g transform="translate(0.000000,120.000000) scale(0.100000,-0.100000)"><path d="M3814,1000.4c-302.6-139.1-572.5-425.3-687-727.9c-57.3-139.1-90-924.3-90-1922.1v-1693.1l-310.8-220.9c-507.1-351.7-981.5-1161.4-997.9-1676.7v-188.1h1472.2h1472.2v-1635.8V-8700H5000h327.2v1635.8v1635.8h1472.2h1472.2v188.1c-16.4,507.1-490.7,1316.9-989.6,1676.7l-310.9,220.9l-24.5,1815.8c-24.5,1684.8-32.7,1832.1-196.3,2036.6c-376.3,507.1-531.6,564.4-1652.2,588.9C4353.9,1106.7,3994,1082.2,3814,1000.4z"/></g></g>
</svg>